<?xml version="1.0" standalone="no"?>
<!DOCTYPE svg PUBLIC "-//W3C//DTD SVG 20010904//EN"
 "http://www.w3.org/TR/2001/REC-SVG-20010904/DTD/svg10.dtd">
<svg version="1.0" xmlns="http://www.w3.org/2000/svg"
 width="260.000000pt" height="260.000000pt" viewBox="0 0 260.000000 260.000000"
 preserveAspectRatio="xMidYMid meet">
<metadata>
Created by potrace 1.14, written by Peter Selinger 2001-2017
</metadata>
<g transform="translate(0.000000,260.000000) scale(0.100000,-0.100000)"
fill="#000000" stroke="none">
<path d="M0 1300 l0 -1300 1300 0 1300 0 0 1175 0 1175 -770 0 -770 0 0 -495
0 -495 -65 0 -65 0 0 565 0 565 835 0 835 0 0 55 0 55 -1300 0 -1300 0 0
-1300z m709 934 c78 -23 145 -92 162 -167 17 -77 1 -128 -55 -182 l-41 -40 49
-30 c73 -44 99 -97 94 -195 -4 -86 -23 -131 -75 -184 -62 -61 -115 -81 -218
-81 -81 0 -95 3 -143 29 -74 41 -132 125 -132 190 0 22 6 26 45 32 25 3 50 4
57 1 7 -2 21 -28 31 -56 26 -74 75 -105 155 -99 72 5 112 31 142 94 39 80 18
165 -54 218 -22 17 -42 21 -97 21 -75 0 -75 0 -63 63 5 26 11 30 50 36 60 8
101 31 124 69 27 43 25 96 -3 138 -28 42 -60 59 -115 59 -76 0 -117 -34 -142
-117 l-12 -40 -52 9 c-28 5 -54 13 -57 16 -13 14 21 99 57 140 72 84 176 111
293 76z m789 4 c65 -16 141 -93 171 -172 33 -88 46 -235 33 -365 -23 -228
-103 -336 -257 -349 -96 -7 -149 11 -212 73 -74 75 -94 143 -100 340 -4 112
-1 168 11 224 42 201 175 294 354 249z m422 -220 l0 -213 213 213 212 212 85
0 85 0 -184 -178 -185 -178 185 -249 c102 -138 188 -256 192 -262 6 -10 -10
-13 -72 -13 l-81 0 -156 221 -157 221 -68 -68 -69 -68 0 -153 0 -153 -60 0
-60 0 0 440 0 440 60 0 60 0 0 -212z m-886 -1028 c24 -102 50 -203 57 -225 30
-102 -47 -203 -138 -181 -37 10 -81 61 -89 104 -4 21 -2 54 5 77 7 22 35 124
63 228 28 103 52 186 54 184 2 -1 23 -86 48 -187z m-94 73 c-1 -29 -41 -158
-52 -164 -7 -5 -25 -9 -39 -9 -14 0 -60 -9 -101 -19 -179 -46 -298 -144 -298
-246 0 -101 115 -197 298 -247 111 -31 363 -31 474 0 183 50 298 146 298 247
0 44 -37 111 -79 145 -77 60 -185 100 -342 125 -35 5 -36 6 -52 78 -25 105
-29 100 61 92 521 -46 866 -312 762 -587 -65 -172 -283 -308 -592 -370 -162
-32 -434 -32 -596 0 -308 62 -527 199 -592 370 -77 203 94 413 426 521 139 45
424 88 424 64z m285 -203 c86 -21 188 -76 233 -124 122 -132 14 -282 -253
-352 -100 -26 -332 -26 -435 0 -211 53 -327 156 -306 271 10 51 75 118 151
156 102 50 275 87 275 59 0 -6 -9 -36 -20 -67 -24 -67 -25 -102 -6 -146 23
-55 61 -82 116 -82 55 0 93 27 116 82 19 44 18 79 -6 146 -29 84 -29 85 33 76
28 -4 75 -13 102 -19z"/>
<path d="M1342 2130 c-75 -46 -112 -225 -92 -437 10 -112 27 -164 68 -206 78
-82 210 -36 248 88 38 123 26 409 -19 490 -45 80 -134 108 -205 65z"/>
<path d="M974 2024 c3 -9 6 -18 6 -20 0 -2 14 -4 30 -4 17 0 30 5 30 10 0 6
-11 10 -25 10 -14 0 -25 5 -25 10 0 6 -5 10 -11 10 -6 0 -8 -7 -5 -16z"/>
<path d="M976 1965 c-11 -29 5 -46 38 -43 25 2 31 7 31 27 0 13 -7 27 -15 29
-13 4 -13 3 -2 -11 8 -9 11 -21 7 -27 -9 -15 -25 -2 -25 21 0 22 -25 26 -34 4z
m21 -17 c-3 -8 -6 -5 -6 6 -1 11 2 17 5 13 3 -3 4 -12 1 -19z"/>
<path d="M960 1902 c-8 -3 -8 -8 0 -16 12 -15 81 -7 87 10 3 9 -62 14 -87 6z"/>
<path d="M977 1853 c-11 -10 -8 -41 4 -49 8 -4 9 0 4 15 -4 12 -2 21 4 21 6 0
11 -6 11 -14 0 -23 26 -38 38 -23 19 23 3 57 -27 57 -15 0 -31 -3 -34 -7z m54
-26 c-1 -12 -15 -9 -19 4 -3 6 1 10 8 8 6 -3 11 -8 11 -12z"/>
<path d="M970 1781 c0 -5 10 -12 23 -16 l22 -8 -22 -4 c-29 -6 -29 -20 -1 -29
l23 -7 -25 -10 c-14 -5 -20 -11 -14 -13 16 -6 64 13 64 26 0 5 -8 10 -17 10
-16 1 -16 2 1 15 11 8 18 16 15 18 -12 11 -69 25 -69 18z"/>
<path d="M952 1623 c9 -2 18 -14 20 -26 2 -17 10 -22 33 -22 25 0 30 4 33 28
3 27 2 27 -50 26 -29 -1 -45 -3 -36 -6z m75 -19 c5 -15 -20 -24 -37 -14 -7 4
-9 13 -5 19 8 14 37 11 42 -5z"/>
<path d="M963 1543 c15 -2 39 -2 55 0 15 2 2 4 -28 4 -30 0 -43 -2 -27 -4z"/>
<path d="M977 1513 c-14 -13 -7 -52 11 -57 9 -3 23 -15 30 -26 10 -17 10 -21
-3 -26 -8 -4 -22 -3 -31 0 -13 5 -14 9 -4 21 9 11 9 15 1 15 -18 0 -25 -29
-11 -45 29 -34 85 -2 62 36 -9 14 -9 23 -1 38 17 25 4 51 -24 51 -13 0 -27 -3
-30 -7z m48 -23 c0 -8 -10 -16 -22 -18 -22 -3 -32 16 -16 32 12 11 38 2 38
-14z"/>
</g>
</svg>
